<svg xmlns="http://www.w3.org/2000/svg" xml:space="preserve" width="1000" height="509.58301" overflow="visible" style="overflow:visible" viewBox="0 0 999.99997 509.58303"><path d="M604.685 313.679c7.613 39.347-13.01 72.03-30.146 103.753-19.033 29.516-50.448 54.884-88.206 51.088-84.73-1.269-167.542-14.278-244.338-37.45-3.487-.948-6.974-3.177-8.883-6.344-1.589-4.447.64-8.573 3.807-11.42 70.132-56.804 153.583-83.131 236.085-110.75 30.774-8.882 63.468-18.404 98.049-13.957 14.267 1.908 28.545 11.75 33.632 25.08zm289.07-168.17c39.348 32.362 74.888 76.476 62.828 129.782-19.674 78.695-105.342 120.58-173.566 147.228-37.13 12.38-74.568 25.08-115.185 28.886-2.537-.32-6.664.31-7.304-3.497l.95-4.436c57.751-65.057 101.535-138.025 139.944-211.965 17.765-33.322 34.272-67.583 49.499-101.226 2.218-2.538 4.446-3.807 6.984-4.756 14.268 1.258 24.43 12.37 35.85 19.983zM340.033 61.736l-1.27 4.756c-83.45 94.871-138.345 204.98-190.381 314.45-10.152 9.522-19.994-3.178-29.196-7.305-46.332-30.454-88.218-79.644-76.157-138.025 19.353-76.147 97.728-116.763 163.105-144.36 38.708-14.598 79.015-26.338 121.53-33.002 4.446-.011 10.15-.64 12.369 3.486zM754.14 76.965c4.756 2.537 10.471 3.486 13.33 8.242 2.537 5.396-2.539 8.883-5.397 12.38-65.685 51.397-140.883 79.964-217.68 105.034-39.038 9.522-78.385 26.658-121.849 17.135-10.162-2.537-19.354-9.202-25.07-19.044-10.79-29.825 3.808-60.92 16.497-86.938 16.816-32.683 46.652-71.081 87.897-71.71 88.847-.64 172.617 12.689 252.272 34.9zm109.789 2.537c67.275 36.81 143.432 101.536 135.498 187.845-9.202 79.964-83.77 135.807-150.405 169.45-194.52 92.973-467.723 95.82-668.588 14.598-67.914-28.237-144.071-76.786-172.638-149.777-21.892-59.97 4.756-122.478 49.51-164.043C150.909 52.535 270.22 23.35 393.029 6.523 526.31-9.664 666.553 4.614 785.864 45.551c26.658 9.842 52.997 20.633 78.066 33.951z" style="clip-rule:evenodd;fill:#002e6b;fill-rule:evenodd;stroke-width:10.66327381"/></svg>